<svg width="61" height="61" viewBox="0 0 61 61" fill="none" xmlns="http://www.w3.org/2000/svg"><path d="M30.491 59.983c16.288 0 29.492-13.204 29.492-29.491C59.983 14.203 46.779 1 30.492 1 14.203 1 1 14.204 1 30.491 1 46.78 14.204 59.983 30.491 59.983z" fill="#E6E7E8" stroke="#ECF0F1" stroke-miterlimit="10"/><path d="M37.98 39.644H24.355l-4.682-12.203 11.187-8.136 11.186 8.136-4.068 12.203z" fill="#38454F"/><path d="M25.214 38.734a1.016 1.016 0 00-1.365.454l-.455.91a1.017 1.017 0 101.82.91l.454-.91a1.015 1.015 0 00-.454-1.364zM23.394 42.373a1.017 1.017 0 00-1.364.454l-.455.91a1.017 1.017 0 101.82.91l.454-.91a1.015 1.015 0 00-.455-1.364zM39.344 40.099l-.455-.91a1.017 1.017 0 00-1.82.91l.456.91a1.017 1.017 0 101.82-.91zM40.709 42.827a1.017 1.017 0 00-1.82.91l.455.91a1.017 1.017 0 101.82-.909l-.455-.91zM17.63 25.459l-.934-.401a1.017 1.017 0 00-.802 1.87l.934.4a1.017 1.017 0 10.802-1.87zM13.892 23.856l-.935-.4a1.018 1.018 0 00-.802 1.868l.934.401a1.017 1.017 0 10.802-1.87zM30.86 11.17c-.562 0-1.016.455-1.016 1.016v1.017a1.017 1.017 0 102.034 0v-1.017c0-.56-.455-1.017-1.017-1.017zM30.86 15.237c-.562 0-1.016.456-1.016 1.017v1.017a1.017 1.017 0 102.034 0v-1.017c0-.561-.455-1.017-1.017-1.017zM45.026 25.058l-.935.4a1.017 1.017 0 10.804 1.869l.934-.4a1.017 1.017 0 10-.803-1.869zM50.1 23.99a1.016 1.016 0 00-1.335-.535l-.934.4a1.017 1.017 0 10.803 1.87l.934-.402c.515-.22.754-.818.532-1.334z" fill="#38454F"/><path d="M23.215 2.007l-2.54 3.65 10.186 6.53 9.152-7-2.304-3.294a29.568 29.568 0 00-7.032-.889c-2.58.016-5.08.365-7.462 1.003zM50.823 13.203L49.166 24.39l10.176 6.18.614-1.17a29.336 29.336 0 00-5.213-15.684l-3.92-.513zM52.016 50.641l.2-4.891-11.186-.004-4.874 10.785 4.216 1.75a29.518 29.518 0 0011.644-7.64zM21.708 45.746l-12.203.004.217 5.296a29.492 29.492 0 0011.461 7.304l4.382-1.82-3.857-10.784zM12.556 24.39l-1.658-11.187-4.326.566a29.323 29.323 0 00-5.147 14.978l.955 1.823 10.176-6.18z" fill="#435159"/><path fill="#E6E7E8" d="M19 17h25v26.471H19z"/><path d="M41.917 19.521h-2.084v-.84c0-.446-.175-.874-.488-1.189a1.66 1.66 0 00-2.357 0 1.687 1.687 0 00-.488 1.189v.84h-3.333v-.84c0-.446-.176-.874-.489-1.189a1.66 1.66 0 00-2.356 0 1.687 1.687 0 00-.489 1.189v.84H26.5v-.84c0-.446-.176-.874-.488-1.189a1.66 1.66 0 00-2.357 0 1.688 1.688 0 00-.488 1.189v.84h-2.084c-.552 0-1.082.221-1.473.615a2.11 2.11 0 00-.61 1.486v16.807c0 .557.22 1.091.61 1.485.39.394.92.615 1.473.615H32.75a.421.421 0 000-.84H21.083a1.248 1.248 0 01-.882-.37 1.27 1.27 0 01-.368-.89V25.403h23.334v7.143a.422.422 0 00.416.42.415.415 0 00.417-.42V21.622a2.11 2.11 0 00-.61-1.486 2.074 2.074 0 00-1.473-.615zm-4.584-.84c0-.223.088-.437.244-.595a.83.83 0 011.179 0 .844.844 0 01.244.595v2.52a.844.844 0 01-.244.595.83.83 0 01-1.179 0 .844.844 0 01-.244-.594V18.68zm-6.666 0c0-.223.087-.437.244-.595a.83.83 0 011.178 0 .844.844 0 01.244.595v2.52a.844.844 0 01-.244.595.83.83 0 01-1.178 0 .844.844 0 01-.244-.594V18.68zm-6.667 0c0-.223.088-.437.244-.595a.83.83 0 011.179 0 .844.844 0 01.244.595v2.52a.844.844 0 01-.244.595.83.83 0 01-1.179 0 .844.844 0 01-.244-.594V18.68zm19.167 5.882H19.833v-2.941a1.27 1.27 0 01.368-.89c.234-.236.551-.37.882-.37h2.084v.84c0 .445.175.873.488 1.188a1.66 1.66 0 002.357 0c.312-.315.488-.743.488-1.188v-.84h3.333v.84c0 .445.176.873.489 1.188a1.66 1.66 0 002.357 0c.312-.315.488-.743.488-1.188v-.84H36.5v.84c0 .445.176.873.488 1.188a1.66 1.66 0 002.357 0c.313-.315.488-.743.488-1.188v-.84h2.084c.33 0 .648.134.883.37.234.236.366.556.367.89v2.941z" fill="#000"/><path d="M30.238 29.307a.802.802 0 00-.803-.803H27.83a.803.803 0 00-.803.803v1.204a.802.802 0 00.803.803h1.605a.802.802 0 00.803-.803v-1.204zm-2.408 1.204v-1.204h1.605v1.204H27.83zM25.422 29.307a.803.803 0 00-.803-.803h-1.605a.803.803 0 00-.803.803v1.204a.803.803 0 00.803.803h1.605a.803.803 0 00.803-.803v-1.204zm-2.409 1.204v-1.204h1.606v1.204h-1.605zM39.067 31.314a.802.802 0 00.803-.803v-1.204a.803.803 0 00-.803-.803h-1.605a.803.803 0 00-.803.803v1.204a.803.803 0 00.803.803h1.605zm-1.605-2.007h1.605v1.204h-1.605v-1.204zM30.238 32.92a.802.802 0 00-.803-.804H27.83a.803.803 0 00-.803.803v1.204a.802.802 0 00.803.803h1.605a.802.802 0 00.803-.803V32.92zm-2.408 1.203V32.92h1.605v1.204H27.83zM25.422 32.92a.803.803 0 00-.803-.804h-1.605a.803.803 0 00-.803.803v1.204a.803.803 0 00.803.803h1.605a.803.803 0 00.803-.803V32.92zm-2.409 1.203V32.92h1.606v1.204h-1.605zM29.435 35.728H27.83a.803.803 0 00-.803.803v1.204a.803.803 0 00.803.803h1.605a.803.803 0 00.803-.803v-1.204a.803.803 0 00-.803-.803zm-1.605 2.007v-1.204h1.605v1.204H27.83zM32.646 31.314h1.605a.802.802 0 00.803-.803v-1.204a.802.802 0 00-.803-.803h-1.605a.803.803 0 00-.803.803v1.204a.803.803 0 00.803.803zm0-2.007h1.605v1.204h-1.605v-1.204zM31.843 34.123a.803.803 0 00.803.803.401.401 0 100-.803V32.92h1.605a.401.401 0 100-.803h-1.605a.803.803 0 00-.803.803v1.204zM24.619 35.728h-1.605a.803.803 0 00-.803.803v1.204a.803.803 0 00.803.803h1.605a.803.803 0 00.803-.803v-1.204a.803.803 0 00-.803-.803zm-1.605 2.007v-1.204h1.605v1.204h-1.605z" fill="#000"/><path d="M37.863 32.116a5.217 5.217 0 100 10.435 5.217 5.217 0 000-10.435zm0 9.633a4.415 4.415 0 110-8.83 4.415 4.415 0 010 8.83z" fill="#000"/><path d="M40.182 35.651l-3.121 3.122-1.42-1.419a.401.401 0 00-.567.568l1.703 1.702a.401.401 0 00.567 0l3.406-3.405a.401.401 0 00-.568-.568z" fill="#000"/></svg>